<?xml version="1.0" standalone="no"?>
<!DOCTYPE svg PUBLIC "-//W3C//DTD SVG 20010904//EN"
 "http://www.w3.org/TR/2001/REC-SVG-20010904/DTD/svg10.dtd">
<svg version="1.0" xmlns="http://www.w3.org/2000/svg"
 width="1024.000000pt" height="1024.000000pt" viewBox="0 0 1024.000000 1024.000000"
 preserveAspectRatio="xMidYMid meet">
<metadata>
Created by potrace 1.11, written by Peter Selinger 2001-2013
</metadata>
<g transform="translate(0.000000,1024.000000) scale(0.100000,-0.100000)"
fill="#000000" stroke="none">
<path d="M2548 10235 c-2 -2 -76 -6 -165 -9 -89 -4 -173 -9 -185 -11 -13 -2
-54 -6 -93 -9 -38 -3 -79 -8 -90 -10 -11 -2 -46 -7 -79 -11 -216 -26 -481
-107 -688 -210 -424 -211 -742 -521 -963 -939 -103 -194 -196 -475 -221 -666
-3 -19 -9 -55 -14 -80 -5 -25 -12 -79 -15 -120 -4 -41 -8 -81 -11 -88 -2 -8
-7 -91 -11 -185 -10 -226 -10 -5353 0 -5522 11 -197 22 -328 32 -385 2 -14 7
-45 10 -70 3 -25 8 -52 10 -60 2 -8 6 -33 10 -54 7 -50 41 -182 67 -266 154
-485 483 -905 921 -1176 116 -73 260 -144 378 -189 95 -37 283 -90 354 -101
22 -3 58 -9 80 -14 55 -12 287 -38 420 -47 145 -10 5498 -10 5640 0 61 4 128
10 150 12 22 3 67 7 100 10 33 2 69 6 80 9 11 2 43 7 70 10 334 45 692 190
979 398 326 236 593 582 740 956 35 88 91 274 102 337 3 17 9 49 15 73 13 60
24 133 35 227 3 28 7 61 9 75 3 14 8 86 12 160 10 172 10 5475 1 5635 -10 158
-17 236 -28 315 -5 36 -12 85 -16 110 -15 120 -73 339 -124 471 -233 605 -715
1066 -1335 1277 -153 52 -264 76 -482 107 -21 3 -47 7 -58 10 -11 2 -63 7
-115 10 -52 4 -113 9 -135 12 -38 5 -5382 12 -5387 8z"/>
</g>
</svg>
